<svg xmlns="http://www.w3.org/2000/svg" viewBox="0 0 24 24" width="24" height="24">
    <path d="M12,1.3a14.062,14.062,0,0,1,5.4,1,5.936,5.936,0,0,1,1.8,1.3A3.006,3.006,0,0,1,20,5.5v13h0a2.56,2.56,0,0,1-.8,1.9,6.425,6.425,0,0,1-1.8,1.3,12.406,12.406,0,0,1-5.4,1,12.406,12.406,0,0,1-5.4-1,5.936,5.936,0,0,1-1.8-1.3A3.006,3.006,0,0,1,4,18.5H4V5.5a2.56,2.56,0,0,1,.8-1.9A6.425,6.425,0,0,1,6.6,2.3,14.062,14.062,0,0,1,12,1.3Zm6.7,6.6a5.67,5.67,0,0,1-1.3.8,12.406,12.406,0,0,1-5.4,1,14.062,14.062,0,0,1-5.4-1,5.67,5.67,0,0,1-1.3-.8V18.5h0a1.2,1.2,0,0,0,.4.8,4.879,4.879,0,0,0,1.3,1,11.567,11.567,0,0,0,5,1.1,11.926,11.926,0,0,0,5-1.1,3.881,3.881,0,0,0,1.4-1,1.2,1.2,0,0,0,.4-.8h0V7.9ZM5.3,5.5a1.6,1.6,0,0,0,.3.8A8.467,8.467,0,0,0,7,7.3a11.66,11.66,0,0,0,5,1,12,12,0,0,0,5-1,3.881,3.881,0,0,0,1.4-1,1.009,1.009,0,0,0,.3-.8,1.6,1.6,0,0,0-.3-.8,8.467,8.467,0,0,0-1.4-1,11.66,11.66,0,0,0-5-1,13.826,13.826,0,0,0-5,1,4.879,4.879,0,0,0-1.3,1A1.2,1.2,0,0,0,5.3,5.5Z"/>
</svg>