<?xml version="1.0" encoding="utf-8"?>
<!-- Generator: Adobe Illustrator 25.3.1, SVG Export Plug-In . SVG Version: 6.00 Build 0)  -->
<svg version="1.1" id="Layer_1" xmlns="http://www.w3.org/2000/svg" xmlns:xlink="http://www.w3.org/1999/xlink" x="0px" y="0px"
	 viewBox="0 0 24 24" style="enable-background:new 0 0 24 24;" xml:space="preserve">
<path d="M12,1.3c2.1,0,4,0.4,5.4,1c0.7,0.3,1.3,0.8,1.8,1.3C19.6,4.1,20,4.7,20,5.5v13l0,0h0c0,0.8-0.3,1.4-0.8,1.9
	c-0.4,0.5-1.1,0.9-1.8,1.3c-1.4,0.7-3.3,1-5.4,1s-4-0.3-5.4-1c-0.7-0.3-1.3-0.8-1.8-1.3C4.4,19.9,4,19.3,4,18.5h0l0,0v-13
	c0-0.8,0.3-1.4,0.8-1.9c0.4-0.5,1.1-0.9,1.8-1.3C8,1.7,9.9,1.3,12,1.3z M18.7,7.9c-0.4,0.3-0.8,0.6-1.3,0.8c-1.4,0.7-3.3,1-5.4,1
	s-4-0.4-5.4-1C6.1,8.5,5.7,8.2,5.3,7.9v10.6l0,0h0c0,0.2,0.1,0.5,0.4,0.8C6,19.6,6.4,20,7,20.3c1.2,0.6,3,1.1,5,1.1s3.7-0.5,5-1.1
	c0.6-0.3,1.1-0.6,1.4-1c0.3-0.3,0.4-0.6,0.4-0.8h0l0,0V7.9z M5.3,5.5c0,0.2,0.1,0.5,0.3,0.8C6,6.6,6.4,7,7,7.3c1.2,0.6,3,1,5,1
	s3.7-0.4,5-1c0.6-0.3,1.1-0.6,1.4-1c0.3-0.3,0.3-0.6,0.3-0.8c0-0.2-0.1-0.5-0.3-0.8C18,4.4,17.6,4,17,3.7c-1.2-0.6-3-1-5-1
	s-3.7,0.5-5,1C6.4,4,6,4.4,5.7,4.7C5.4,5,5.3,5.3,5.3,5.5z"/>
</svg>
