<?xml version="1.0" encoding="utf-8"?>
<!-- Generator: Adobe Illustrator 25.3.1, SVG Export Plug-In . SVG Version: 6.00 Build 0)  -->
<svg version="1.1" id="Layer_1" xmlns="http://www.w3.org/2000/svg" xmlns:xlink="http://www.w3.org/1999/xlink" x="0px" y="0px"
	 viewBox="0 0 24 24" style="enable-background:new 0 0 24 24;" xml:space="preserve">
<path d="M5.8,8.2C5.5,7.9,5,7.9,4.7,8.2l-3.2,3.2c-0.3,0.3-0.3,0.8,0,1.1l3.3,3.2c0.3,0.3,0.8,0.3,1.1,0c0.3-0.3,0.3-0.7,0-1l-2-2
	h16.4l-2,2c-0.3,0.3-0.3,0.8,0,1.1c0.3,0.3,0.8,0.3,1.1,0c0,0,0,0,0,0l3.2-3.2c0.3-0.3,0.3-0.8,0-1.1l-3.3-3.3
	c-0.3-0.3-0.8-0.3-1.1,0s-0.3,0.8,0,1.1c0,0,0,0,0,0l2,2H3.8l2-2C6.1,9,6.1,8.5,5.8,8.2z"/>
<path d="M15.8,5.8c0.3-0.3,0.3-0.8,0-1.1l-3.2-3.2c-0.3-0.3-0.8-0.3-1.1,0L8.2,4.7C7.9,5,8,5.5,8.3,5.8C8.5,6,9,6,9.3,5.8l2-2v16.4
	l-2-2c-0.3-0.3-0.8-0.3-1.1,0c-0.3,0.3-0.3,0.8,0,1.1c0,0,0,0,0,0l3.2,3.2c0.3,0.3,0.8,0.3,1.1,0l3.3-3.3c0.3-0.3,0.3-0.8,0-1.1
	s-0.8-0.3-1.1,0c0,0,0,0,0,0l-2,2V3.8l2,2C15,6.1,15.5,6.1,15.8,5.8z"/>
</svg>
