<svg xmlns="http://www.w3.org/2000/svg" viewBox="0 0 24 24" width="24" height="24">
    <path d="M5.8,8.2a.785.785,0,0,0-1.1,0L1.5,11.4a.785.785,0,0,0,0,1.1l3.3,3.2a.785.785,0,0,0,1.1,0,.668.668,0,0,0,0-1l-2-2H20.3l-2,2a.778.778,0,0,0,1.1,1.1h0l3.2-3.2a.785.785,0,0,0,0-1.1L19.3,8.2a.778.778,0,0,0-1.1,1.1h0l2,2H3.8l2-2A.785.785,0,0,0,5.8,8.2Z"/>
    <path d="M15.8,5.8a.785.785,0,0,0,0-1.1L12.6,1.5a.785.785,0,0,0-1.1,0L8.2,4.7a.792.792,0,0,0,.1,1.1.9.9,0,0,0,1,0l2-2V20.2l-2-2a.778.778,0,0,0-1.1,1.1h0l3.2,3.2a.785.785,0,0,0,1.1,0l3.3-3.3a.778.778,0,1,0-1.1-1.1h0l-2,2V3.8l2,2A.785.785,0,0,0,15.8,5.8Z"/>
</svg>